<?xml version="1.0" standalone="no"?><!DOCTYPE svg PUBLIC "-//W3C//DTD SVG 1.1//EN" "http://www.w3.org/Graphics/SVG/1.1/DTD/svg11.dtd"><svg t="1756247284895" class="icon" viewBox="0 0 1024 1024" version="1.1" xmlns="http://www.w3.org/2000/svg" p-id="6551" xmlns:xlink="http://www.w3.org/1999/xlink" width="200" height="200"><path d="M1024 512c0 282.784-229.216 512-512 512S0 794.784 0 512 229.216 0 512 0s512 229.216 512 512z" fill="#EB2681" p-id="6552"></path><path d="M511.936 440.864A71.296 71.296 0 0 0 440.8 512c0 39.168 32 71.136 71.136 71.136A71.296 71.296 0 0 0 583.072 512a71.296 71.296 0 0 0-71.136-71.136zM725.312 512c0-29.44 0.256-58.656-1.376-88.064-1.664-34.144-9.44-64.48-34.432-89.44-25.024-25.024-55.296-32.768-89.44-34.432-29.44-1.664-58.656-1.376-88.064-1.376-29.44 0-58.656-0.288-88.064 1.376-34.144 1.664-64.48 9.44-89.44 34.432-25.024 25.024-32.768 55.296-34.432 89.44-1.664 29.44-1.376 58.656-1.376 88.064 0 29.408-0.288 58.656 1.376 88.064 1.664 34.144 9.44 64.48 34.432 89.44 25.024 25.024 55.296 32.768 89.44 34.432 29.44 1.632 58.656 1.376 88.064 1.376 29.44 0 58.656 0.256 88.064-1.376 34.144-1.664 64.48-9.44 89.44-34.432 25.024-25.024 32.768-55.296 34.432-89.44 1.696-29.44 1.376-58.592 1.376-88.064z m-213.376 109.44a109.312 109.312 0 0 1-109.44-109.44 109.312 109.312 0 0 1 109.44-109.44A109.312 109.312 0 0 1 621.44 512a109.312 109.312 0 0 1-109.44 109.44z m113.952-197.824a25.536 25.536 0 1 1 0-51.136 25.536 25.536 0 1 1 0 51.136z" fill="#EFEFEF" p-id="6553"></path></svg>