<?xml version="1.0" standalone="no"?><!DOCTYPE svg PUBLIC "-//W3C//DTD SVG 1.1//EN" "http://www.w3.org/Graphics/SVG/1.1/DTD/svg11.dtd"><svg t="1756247437183" class="icon" viewBox="0 0 1025 1024" version="1.1" xmlns="http://www.w3.org/2000/svg" p-id="2112" xmlns:xlink="http://www.w3.org/1999/xlink" width="200.1953125" height="200"><path d="M970.538667 206.250667c15.872 16 27.306667 35.84 33.066666 57.642666 21.418667 80.426667 21.418667 248.106667 21.418667 248.106667s0 167.68-21.418667 248.064A128.682667 128.682667 0 0 1 913.066667 851.2c-80.042667 21.546667-400.042667 21.546667-400.042667 21.546667s-320 0-400.042667-21.546667a128.725333 128.725333 0 0 1-90.538666-91.136C1.024 679.68 1.024 512 1.024 512s0-167.68 21.418667-248.106667A128.682667 128.682667 0 0 1 112.981333 172.8c80.042667-21.546667 400.042667-21.546667 400.042667-21.546667s320 0 400.042667 21.546667c21.76 5.930667 41.557333 17.493333 57.472 33.450667zM675.925333 512L408.32 359.722667v304.554666L675.925333 512z" fill="#FF0302" p-id="2113"></path></svg>